<svg width="1420" height="1421" xmlns="http://www.w3.org/2000/svg" xmlns:xlink="http://www.w3.org/1999/xlink" xml:space="preserve" overflow="hidden"><defs><clipPath id="clip0"><rect x="1490" y="483" width="1420" height="1421"/></clipPath></defs><g clip-path="url(#clip0)" transform="translate(-1490 -483)"><path d="M2091.83 494.881C2333.68 494.881 2532.6 680.2 2556.52 917.678L2557.83 943.881 2321.11 943.881 2321.03 942.085C2309.23 824.955 2211.12 733.546 2091.83 733.546 1972.55 733.546 1874.44 824.955 1862.64 942.085L1862.54 943.881 1625.83 943.881 1627.15 917.678C1651.06 680.2 1849.99 494.881 2091.83 494.881Z" fill="#404040" fill-rule="evenodd"/><path d="M1625.83 494.881 1863.83 494.881 1863.83 1070.88 1625.83 1070.88Z" fill="#767171" fill-rule="evenodd"/><path d="M2556.13 1030.88 2556.13 1443.25 2556.45 1443.25 2556.13 1449.59C2556.13 1568.92 2646.24 1667.07 2761.72 1678.88L2778.83 1679.74 2778.83 1903.88 2737.66 1901.79C2503.53 1877.86 2320.83 1678.86 2320.83 1436.92 2320.83 1270.57 2407.19 1124.54 2537.24 1041.74L2556.13 1030.88Z" fill="#BFBFBF" fill-rule="evenodd"/><path d="M1621.49 817C1700.3 899.935 1782.17 982.869 1860.97 1065.8 1861.3 1189.21 1858.57 1312.6 1858.9 1436L1621 1436C1621.66 1229.67 1620.83 1023.33 1621.49 817Z" fill="#9F2936" fill-rule="evenodd"/><path d="M2320.83 943.881 2555.83 943.881 2555.83 1435.88 2320.83 1435.88Z" fill="#BAAD8D" fill-rule="evenodd"/><path d="M2142.83 1079.88 2752.83 1079.88 2752.83 1316.88 2142.83 1316.88Z" fill="#1B587C" fill-rule="evenodd"/></g></svg>